<svg width="127" height="19" viewBox="0 0 127 19" fill="none" xmlns="http://www.w3.org/2000/svg">
<path d="M0.888 9.624C0.888 7.992 1.264 6.528 2.016 5.232C2.784 3.936 3.816 2.928 5.112 2.208C6.424 1.472 7.856 1.104 9.408 1.104C11.184 1.104 12.76 1.544 14.136 2.424C15.528 3.288 16.536 4.52 17.16 6.12H13.872C13.44 5.24 12.84 4.584 12.072 4.152C11.304 3.72 10.416 3.504 9.408 3.504C8.304 3.504 7.32 3.752 6.456 4.248C5.592 4.744 4.912 5.456 4.416 6.384C3.936 7.312 3.696 8.392 3.696 9.624C3.696 10.856 3.936 11.936 4.416 12.864C4.912 13.792 5.592 14.512 6.456 15.024C7.32 15.52 8.304 15.768 9.408 15.768C10.416 15.768 11.304 15.552 12.072 15.12C12.84 14.688 13.44 14.032 13.872 13.152H17.16C16.536 14.752 15.528 15.984 14.136 16.848C12.76 17.712 11.184 18.144 9.408 18.144C7.84 18.144 6.408 17.784 5.112 17.064C3.816 16.328 2.784 15.312 2.016 14.016C1.264 12.72 0.888 11.256 0.888 9.624ZM27.2025 4.56C28.2105 4.56 29.1065 4.776 29.8905 5.208C30.6905 5.64 31.3145 6.28 31.7625 7.128C32.2265 7.976 32.4585 9 32.4585 10.2V18H29.7465V10.608C29.7465 9.424 29.4505 8.52 28.8585 7.896C28.2665 7.256 27.4585 6.936 26.4345 6.936C25.4105 6.936 24.5945 7.256 23.9865 7.896C23.3945 8.52 23.0985 9.424 23.0985 10.608V18H20.3625V0.24H23.0985V6.312C23.5625 5.752 24.1465 5.32 24.8505 5.016C25.5705 4.712 26.3545 4.56 27.2025 4.56ZM35.0364 11.328C35.0364 10 35.3084 8.824 35.8524 7.8C36.4124 6.776 37.1644 5.984 38.1084 5.424C39.0684 4.848 40.1244 4.56 41.2764 4.56C42.3164 4.56 43.2204 4.768 43.9884 5.184C44.7724 5.584 45.3964 6.088 45.8604 6.696V4.776H48.6204V18H45.8604V16.032C45.3964 16.656 44.7644 17.176 43.9644 17.592C43.1644 18.008 42.2524 18.216 41.2284 18.216C40.0924 18.216 39.0524 17.928 38.1084 17.352C37.1644 16.76 36.4124 15.944 35.8524 14.904C35.3084 13.848 35.0364 12.656 35.0364 11.328ZM45.8604 11.376C45.8604 10.464 45.6684 9.672 45.2844 9C44.9164 8.328 44.4284 7.816 43.8204 7.464C43.2124 7.112 42.5564 6.936 41.8524 6.936C41.1484 6.936 40.4924 7.112 39.8844 7.464C39.2764 7.8 38.7804 8.304 38.3964 8.976C38.0284 9.632 37.8444 10.416 37.8444 11.328C37.8444 12.24 38.0284 13.04 38.3964 13.728C38.7804 14.416 39.2764 14.944 39.8844 15.312C40.5084 15.664 41.1644 15.84 41.8524 15.84C42.5564 15.84 43.2124 15.664 43.8204 15.312C44.4284 14.96 44.9164 14.448 45.2844 13.776C45.6684 13.088 45.8604 12.288 45.8604 11.376ZM55.4061 7.008V14.328C55.4061 14.824 55.5181 15.184 55.7421 15.408C55.9821 15.616 56.3821 15.72 56.9421 15.72H58.6221V18H56.4621C55.2301 18 54.2861 17.712 53.6301 17.136C52.9741 16.56 52.6461 15.624 52.6461 14.328V7.008H51.0861V4.776H52.6461V1.488H55.4061V4.776H58.6221V7.008H55.4061ZM73.2158 6.12C72.7838 5.288 72.1838 4.664 71.4158 4.248C70.6478 3.816 69.7598 3.6 68.7518 3.6C67.6478 3.6 66.6638 3.848 65.7998 4.344C64.9358 4.84 64.2558 5.544 63.7598 6.456C63.2798 7.368 63.0398 8.424 63.0398 9.624C63.0398 10.824 63.2798 11.888 63.7598 12.816C64.2558 13.728 64.9358 14.432 65.7998 14.928C66.6638 15.424 67.6478 15.672 68.7518 15.672C70.2398 15.672 71.4478 15.256 72.3758 14.424C73.3038 13.592 73.8718 12.464 74.0798 11.04H67.8158V8.856H77.0078V10.992C76.8318 12.288 76.3678 13.48 75.6158 14.568C74.8798 15.656 73.9118 16.528 72.7118 17.184C71.5278 17.824 70.2078 18.144 68.7518 18.144C67.1838 18.144 65.7518 17.784 64.4558 17.064C63.1598 16.328 62.1278 15.312 61.3598 14.016C60.6078 12.72 60.2318 11.256 60.2318 9.624C60.2318 7.992 60.6078 6.528 61.3598 5.232C62.1278 3.936 63.1598 2.928 64.4558 2.208C65.7678 1.472 67.1998 1.104 68.7518 1.104C70.5278 1.104 72.1038 1.544 73.4798 2.424C74.8718 3.288 75.8798 4.52 76.5038 6.12H73.2158ZM82.4423 6.696C82.8423 6.024 83.3703 5.504 84.0263 5.136C84.6983 4.752 85.4903 4.56 86.4023 4.56V7.392H85.7063C84.6343 7.392 83.8183 7.664 83.2583 8.208C82.7143 8.752 82.4423 9.696 82.4423 11.04V18H79.7063V4.776H82.4423V6.696ZM88.0052 11.328C88.0052 10 88.2772 8.824 88.8212 7.8C89.3812 6.776 90.1332 5.984 91.0772 5.424C92.0372 4.848 93.0932 4.56 94.2452 4.56C95.2852 4.56 96.1892 4.768 96.9572 5.184C97.7412 5.584 98.3652 6.088 98.8292 6.696V4.776H101.589V18H98.8292V16.032C98.3652 16.656 97.7332 17.176 96.9332 17.592C96.1332 18.008 95.2212 18.216 94.1972 18.216C93.0612 18.216 92.0212 17.928 91.0772 17.352C90.1332 16.76 89.3812 15.944 88.8212 14.904C88.2772 13.848 88.0052 12.656 88.0052 11.328ZM98.8292 11.376C98.8292 10.464 98.6372 9.672 98.2532 9C97.8852 8.328 97.3972 7.816 96.7892 7.464C96.1812 7.112 95.5252 6.936 94.8212 6.936C94.1172 6.936 93.4612 7.112 92.8532 7.464C92.2452 7.8 91.7492 8.304 91.3652 8.976C90.9972 9.632 90.8132 10.416 90.8132 11.328C90.8132 12.24 90.9972 13.04 91.3652 13.728C91.7492 14.416 92.2452 14.944 92.8532 15.312C93.4772 15.664 94.1332 15.84 94.8212 15.84C95.5252 15.84 96.1812 15.664 96.7892 15.312C97.3972 14.96 97.8852 14.448 98.2532 13.776C98.6372 13.088 98.8292 12.288 98.8292 11.376ZM121.191 4.56C122.231 4.56 123.159 4.776 123.975 5.208C124.807 5.64 125.455 6.28 125.919 7.128C126.399 7.976 126.639 9 126.639 10.2V18H123.927V10.608C123.927 9.424 123.631 8.52 123.039 7.896C122.447 7.256 121.639 6.936 120.615 6.936C119.591 6.936 118.775 7.256 118.167 7.896C117.575 8.52 117.279 9.424 117.279 10.608V18H114.567V10.608C114.567 9.424 114.271 8.52 113.679 7.896C113.087 7.256 112.279 6.936 111.255 6.936C110.231 6.936 109.415 7.256 108.807 7.896C108.215 8.52 107.919 9.424 107.919 10.608V18H105.183V4.776H107.919V6.288C108.367 5.744 108.935 5.32 109.623 5.016C110.311 4.712 111.047 4.56 111.831 4.56C112.887 4.56 113.831 4.784 114.663 5.232C115.495 5.68 116.135 6.328 116.583 7.176C116.983 6.376 117.607 5.744 118.455 5.28C119.303 4.8 120.215 4.56 121.191 4.56Z" fill="black"/>
</svg>
