<svg width="102" height="20" viewBox="0 0 102 20" fill="none" xmlns="http://www.w3.org/2000/svg">
<path fill-rule="evenodd" clip-rule="evenodd" d="M84 3C84 2.44772 84.4477 2 85 2H99C99.5523 2 100 2.44772 100 3V17C100 17.5523 99.5523 18 99 18H85C84.4477 18 84 17.5523 84 17V3ZM85 0C83.3431 0 82 1.34315 82 3V17C82 18.6569 83.3431 20 85 20H99C100.657 20 102 18.6569 102 17V3C102 1.34315 100.657 0 99 0H85ZM1.008 7.616C0.632 8.264 0.444 8.996 0.444 9.812C0.444 10.628 0.632 11.36 1.008 12.008C1.392 12.656 1.908 13.164 2.556 13.532C3.204 13.892 3.92 14.072 4.704 14.072C5.592 14.072 6.38 13.856 7.068 13.424C7.764 12.992 8.268 12.376 8.58 11.576H6.936C6.72 12.016 6.42 12.344 6.036 12.56C5.652 12.776 5.208 12.884 4.704 12.884C4.152 12.884 3.66 12.76 3.228 12.512C2.796 12.256 2.456 11.896 2.208 11.432C1.968 10.968 1.848 10.428 1.848 9.812C1.848 9.196 1.968 8.656 2.208 8.192C2.456 7.728 2.796 7.372 3.228 7.124C3.66 6.876 4.152 6.752 4.704 6.752C5.208 6.752 5.652 6.86 6.036 7.076C6.42 7.292 6.72 7.62 6.936 8.06H8.58C8.268 7.26 7.764 6.644 7.068 6.212C6.38 5.772 5.592 5.552 4.704 5.552C3.928 5.552 3.212 5.736 2.556 6.104C1.908 6.464 1.392 6.968 1.008 7.616ZM12.3413 7.568C12.0133 7.752 11.7493 8.012 11.5493 8.348V7.388H10.1813V14H11.5493V10.52C11.5493 9.848 11.6853 9.376 11.9573 9.104C12.2373 8.832 12.6453 8.696 13.1813 8.696H13.5293V7.28C13.0733 7.28 12.6773 7.376 12.3413 7.568ZM20.7987 11.204C20.8307 11.004 20.8467 10.78 20.8467 10.532C20.8467 9.892 20.7107 9.328 20.4387 8.84C20.1667 8.344 19.7867 7.96 19.2987 7.688C18.8107 7.416 18.2547 7.28 17.6307 7.28C16.9827 7.28 16.4067 7.42 15.9027 7.7C15.4067 7.98 15.0187 8.38 14.7387 8.9C14.4667 9.412 14.3307 10.008 14.3307 10.688C14.3307 11.368 14.4707 11.968 14.7507 12.488C15.0387 13 15.4307 13.4 15.9267 13.688C16.4307 13.968 16.9987 14.108 17.6307 14.108C18.4067 14.108 19.0547 13.916 19.5747 13.532C20.1027 13.14 20.4667 12.64 20.6667 12.032H19.1907C18.8867 12.648 18.3667 12.956 17.6307 12.956C17.1187 12.956 16.6867 12.796 16.3347 12.476C15.9827 12.156 15.7867 11.732 15.7467 11.204H20.7987ZM18.8787 8.888C19.2307 9.192 19.4107 9.596 19.4187 10.1H15.7587C15.8227 9.588 16.0227 9.184 16.3587 8.888C16.6947 8.584 17.0987 8.432 17.5707 8.432C18.0907 8.432 18.5267 8.584 18.8787 8.888ZM22.145 8.9C21.873 9.412 21.737 10 21.737 10.664C21.737 11.328 21.873 11.924 22.145 12.452C22.425 12.972 22.801 13.38 23.273 13.676C23.745 13.964 24.265 14.108 24.833 14.108C25.345 14.108 25.801 14.004 26.201 13.796C26.601 13.588 26.917 13.328 27.149 13.016V14H28.529V7.388H27.149V8.348C26.917 8.044 26.605 7.792 26.213 7.592C25.829 7.384 25.377 7.28 24.857 7.28C24.281 7.28 23.753 7.424 23.273 7.712C22.801 7.992 22.425 8.388 22.145 8.9ZM26.861 9.5C27.053 9.836 27.149 10.232 27.149 10.688C27.149 11.144 27.053 11.544 26.861 11.888C26.677 12.224 26.433 12.48 26.129 12.656C25.825 12.832 25.497 12.92 25.145 12.92C24.801 12.92 24.473 12.832 24.161 12.656C23.857 12.472 23.609 12.208 23.417 11.864C23.233 11.52 23.141 11.12 23.141 10.664C23.141 10.208 23.233 9.816 23.417 9.488C23.609 9.152 23.857 8.9 24.161 8.732C24.465 8.556 24.793 8.468 25.145 8.468C25.497 8.468 25.825 8.556 26.129 8.732C26.433 8.908 26.677 9.164 26.861 9.5ZM31.9218 12.164V8.504H33.5298V7.388H31.9218V5.744H30.5418V7.388H29.7618V8.504H30.5418V12.164C30.5418 12.812 30.7058 13.28 31.0338 13.568C31.3618 13.856 31.8338 14 32.4498 14H33.5298V12.86H32.6898C32.4098 12.86 32.2098 12.808 32.0898 12.704C31.9778 12.592 31.9218 12.412 31.9218 12.164ZM40.8026 11.204C40.8346 11.004 40.8506 10.78 40.8506 10.532C40.8506 9.892 40.7146 9.328 40.4426 8.84C40.1706 8.344 39.7906 7.96 39.3026 7.688C38.8146 7.416 38.2586 7.28 37.6346 7.28C36.9866 7.28 36.4106 7.42 35.9066 7.7C35.4106 7.98 35.0226 8.38 34.7426 8.9C34.4706 9.412 34.3346 10.008 34.3346 10.688C34.3346 11.368 34.4746 11.968 34.7546 12.488C35.0426 13 35.4346 13.4 35.9306 13.688C36.4346 13.968 37.0026 14.108 37.6346 14.108C38.4106 14.108 39.0586 13.916 39.5786 13.532C40.1066 13.14 40.4706 12.64 40.6706 12.032H39.1946C38.8906 12.648 38.3706 12.956 37.6346 12.956C37.1226 12.956 36.6906 12.796 36.3386 12.476C35.9866 12.156 35.7906 11.732 35.7506 11.204H40.8026ZM38.8826 8.888C39.2346 9.192 39.4146 9.596 39.4226 10.1H35.7626C35.8266 9.588 36.0266 9.184 36.3626 8.888C36.6986 8.584 37.1026 8.432 37.5746 8.432C38.0946 8.432 38.5306 8.584 38.8826 8.888ZM47.7261 10.664L49.6461 14H51.2781L49.2141 10.544C49.8701 10.384 50.3541 10.084 50.6661 9.644C50.9861 9.196 51.1461 8.7 51.1461 8.156C51.1461 7.692 51.0341 7.272 50.8101 6.896C50.5941 6.52 50.2621 6.22 49.8141 5.996C49.3741 5.772 48.8341 5.66 48.1941 5.66H45.3141V14H46.6821V10.664H47.7261ZM48.1941 9.572H46.6821V6.776H48.1941C48.7141 6.776 49.1021 6.9 49.3581 7.148C49.6141 7.388 49.7421 7.724 49.7421 8.156C49.7421 8.588 49.6101 8.932 49.3461 9.188C49.0901 9.444 48.7061 9.572 48.1941 9.572ZM54.0721 13.688C54.5761 13.968 55.1401 14.108 55.7641 14.108C56.3961 14.108 56.9721 13.968 57.4921 13.688C58.0201 13.4 58.4361 12.996 58.7401 12.476C59.0441 11.956 59.1961 11.36 59.1961 10.688C59.1961 10.016 59.0481 9.42 58.7521 8.9C58.4561 8.38 58.0521 7.98 57.5401 7.7C57.0281 7.42 56.4561 7.28 55.8241 7.28C55.1921 7.28 54.6201 7.42 54.1081 7.7C53.5961 7.98 53.1921 8.38 52.8961 8.9C52.6001 9.42 52.4521 10.016 52.4521 10.688C52.4521 11.368 52.5961 11.968 52.8841 12.488C53.1721 13 53.5681 13.4 54.0721 13.688ZM56.7481 12.668C56.4441 12.836 56.1161 12.92 55.7641 12.92C55.2121 12.92 54.7521 12.728 54.3841 12.344C54.0241 11.952 53.8441 11.4 53.8441 10.688C53.8441 10.208 53.9321 9.804 54.1081 9.476C54.2841 9.14 54.5201 8.888 54.8161 8.72C55.1201 8.552 55.4481 8.468 55.8001 8.468C56.1521 8.468 56.4801 8.552 56.7841 8.72C57.0881 8.888 57.3321 9.14 57.5161 9.476C57.7001 9.804 57.7921 10.208 57.7921 10.688C57.7921 11.168 57.6961 11.576 57.5041 11.912C57.3121 12.248 57.0601 12.5 56.7481 12.668ZM61.7244 13.688C62.2284 13.968 62.7924 14.108 63.4164 14.108C64.0484 14.108 64.6244 13.968 65.1444 13.688C65.6724 13.4 66.0884 12.996 66.3924 12.476C66.6964 11.956 66.8484 11.36 66.8484 10.688C66.8484 10.016 66.7004 9.42 66.4044 8.9C66.1084 8.38 65.7044 7.98 65.1924 7.7C64.6804 7.42 64.1084 7.28 63.4764 7.28C62.8444 7.28 62.2724 7.42 61.7604 7.7C61.2484 7.98 60.8444 8.38 60.5484 8.9C60.2524 9.42 60.1044 10.016 60.1044 10.688C60.1044 11.368 60.2484 11.968 60.5364 12.488C60.8244 13 61.2204 13.4 61.7244 13.688ZM64.4004 12.668C64.0964 12.836 63.7684 12.92 63.4164 12.92C62.8644 12.92 62.4044 12.728 62.0364 12.344C61.6764 11.952 61.4964 11.4 61.4964 10.688C61.4964 10.208 61.5844 9.804 61.7604 9.476C61.9364 9.14 62.1724 8.888 62.4684 8.72C62.7724 8.552 63.1004 8.468 63.4524 8.468C63.8044 8.468 64.1324 8.552 64.4364 8.72C64.7404 8.888 64.9844 9.14 65.1684 9.476C65.3524 9.804 65.4444 10.208 65.4444 10.688C65.4444 11.168 65.3484 11.576 65.1564 11.912C64.9644 12.248 64.7124 12.5 64.4004 12.668ZM77.5968 7.604C77.1888 7.388 76.7248 7.28 76.2048 7.28C75.7168 7.28 75.2608 7.4 74.8368 7.64C74.4128 7.872 74.1008 8.188 73.9008 8.588C73.6768 8.164 73.3568 7.84 72.9408 7.616C72.5248 7.392 72.0528 7.28 71.5248 7.28C71.1328 7.28 70.7648 7.356 70.4208 7.508C70.0768 7.66 69.7928 7.872 69.5688 8.144V7.388H68.2008V14H69.5688V10.304C69.5688 9.712 69.7168 9.26 70.0128 8.948C70.3168 8.628 70.7248 8.468 71.2368 8.468C71.7488 8.468 72.1528 8.628 72.4488 8.948C72.7448 9.26 72.8928 9.712 72.8928 10.304V14H74.2488V10.304C74.2488 9.712 74.3968 9.26 74.6928 8.948C74.9968 8.628 75.4048 8.468 75.9168 8.468C76.4288 8.468 76.8328 8.628 77.1288 8.948C77.4248 9.26 77.5728 9.712 77.5728 10.304V14H78.9288V10.1C78.9288 9.5 78.8088 8.988 78.5688 8.564C78.3368 8.14 78.0128 7.82 77.5968 7.604ZM92 5C92.5523 5 93 5.44772 93 6V9H96C96.5523 9 97 9.44771 97 10C97 10.5523 96.5523 11 96 11H93V14C93 14.5523 92.5523 15 92 15C91.4477 15 91 14.5523 91 14V11H88C87.4477 11 87 10.5523 87 10C87 9.44771 87.4477 9 88 9H91V6C91 5.44772 91.4477 5 92 5Z" fill="black"/>
</svg>
