<svg width="83" height="16" viewBox="0 0 83 16" fill="none" xmlns="http://www.w3.org/2000/svg">
<path fill-rule="evenodd" clip-rule="evenodd" d="M75 0C75.5523 0 76 0.447715 76 1V7H82C82.5523 7 83 7.44772 83 8C83 8.55229 82.5523 9 82 9H76V15C76 15.5523 75.5523 16 75 16C74.4477 16 74 15.5523 74 15V9H68C67.4477 9 67 8.55229 67 8C67 7.44772 67.4477 7 68 7H74V1C74 0.447715 74.4477 0 75 0ZM7.30799 12H5.93999L1.82399 5.772V12H0.455994V3.648H1.82399L5.93999 9.864V3.648H7.30799V12ZM15.1644 8.532C15.1644 8.78 15.1484 9.004 15.1164 9.204H10.0644C10.1044 9.732 10.3004 10.156 10.6524 10.476C11.0044 10.796 11.4364 10.956 11.9484 10.956C12.6844 10.956 13.2044 10.648 13.5084 10.032H14.9844C14.7844 10.64 14.4204 11.14 13.8924 11.532C13.3724 11.916 12.7244 12.108 11.9484 12.108C11.3164 12.108 10.7484 11.968 10.2444 11.688C9.74843 11.4 9.35643 11 9.06843 10.488C8.78843 9.968 8.64843 9.368 8.64843 8.688C8.64843 8.008 8.78443 7.412 9.05643 6.9C9.33643 6.38 9.72443 5.98 10.2204 5.7C10.7244 5.42 11.3004 5.28 11.9484 5.28C12.5724 5.28 13.1284 5.416 13.6164 5.688C14.1044 5.96 14.4844 6.344 14.7564 6.84C15.0284 7.328 15.1644 7.892 15.1644 8.532ZM13.7364 8.1C13.7284 7.596 13.5484 7.192 13.1964 6.888C12.8444 6.584 12.4084 6.432 11.8884 6.432C11.4164 6.432 11.0124 6.584 10.6764 6.888C10.3404 7.184 10.1404 7.588 10.0764 8.1H13.7364ZM25.3907 5.388L23.3387 12H21.8987L20.5667 7.116L19.2347 12H17.7947L15.7307 5.388H17.1227L18.5027 10.704L19.9067 5.388H21.3347L22.6787 10.68L24.0467 5.388H25.3907ZM33.8622 12L31.9422 8.664H30.8982V12H29.5302V3.66H32.4102C33.0502 3.66 33.5902 3.772 34.0302 3.996C34.4782 4.22 34.8102 4.52 35.0262 4.896C35.2502 5.272 35.3622 5.692 35.3622 6.156C35.3622 6.7 35.2022 7.196 34.8822 7.644C34.5702 8.084 34.0862 8.384 33.4302 8.544L35.4942 12H33.8622ZM30.8982 7.572H32.4102C32.9222 7.572 33.3062 7.444 33.5622 7.188C33.8262 6.932 33.9582 6.588 33.9582 6.156C33.9582 5.724 33.8302 5.388 33.5742 5.148C33.3182 4.9 32.9302 4.776 32.4102 4.776H30.8982V7.572ZM39.9802 12.108C39.3562 12.108 38.7922 11.968 38.2882 11.688C37.7842 11.4 37.3882 11 37.1002 10.488C36.8122 9.968 36.6682 9.368 36.6682 8.688C36.6682 8.016 36.8162 7.42 37.1122 6.9C37.4082 6.38 37.8122 5.98 38.3242 5.7C38.8362 5.42 39.4082 5.28 40.0402 5.28C40.6722 5.28 41.2442 5.42 41.7562 5.7C42.2682 5.98 42.6722 6.38 42.9682 6.9C43.2642 7.42 43.4122 8.016 43.4122 8.688C43.4122 9.36 43.2602 9.956 42.9562 10.476C42.6522 10.996 42.2362 11.4 41.7082 11.688C41.1882 11.968 40.6122 12.108 39.9802 12.108ZM39.9802 10.92C40.3322 10.92 40.6602 10.836 40.9642 10.668C41.2762 10.5 41.5282 10.248 41.7202 9.912C41.9122 9.576 42.0082 9.168 42.0082 8.688C42.0082 8.208 41.9162 7.804 41.7322 7.476C41.5482 7.14 41.3042 6.888 41.0002 6.72C40.6962 6.552 40.3682 6.468 40.0162 6.468C39.6642 6.468 39.3362 6.552 39.0322 6.72C38.7362 6.888 38.5002 7.14 38.3242 7.476C38.1482 7.804 38.0602 8.208 38.0602 8.688C38.0602 9.4 38.2402 9.952 38.6002 10.344C38.9682 10.728 39.4282 10.92 39.9802 10.92ZM47.6326 12.108C47.0086 12.108 46.4446 11.968 45.9406 11.688C45.4366 11.4 45.0406 11 44.7526 10.488C44.4646 9.968 44.3206 9.368 44.3206 8.688C44.3206 8.016 44.4686 7.42 44.7646 6.9C45.0606 6.38 45.4646 5.98 45.9766 5.7C46.4886 5.42 47.0606 5.28 47.6926 5.28C48.3246 5.28 48.8966 5.42 49.4086 5.7C49.9206 5.98 50.3246 6.38 50.6206 6.9C50.9166 7.42 51.0646 8.016 51.0646 8.688C51.0646 9.36 50.9126 9.956 50.6086 10.476C50.3046 10.996 49.8886 11.4 49.3606 11.688C48.8406 11.968 48.2646 12.108 47.6326 12.108ZM47.6326 10.92C47.9846 10.92 48.3126 10.836 48.6166 10.668C48.9286 10.5 49.1806 10.248 49.3726 9.912C49.5646 9.576 49.6606 9.168 49.6606 8.688C49.6606 8.208 49.5686 7.804 49.3846 7.476C49.2006 7.14 48.9566 6.888 48.6526 6.72C48.3486 6.552 48.0206 6.468 47.6686 6.468C47.3166 6.468 46.9886 6.552 46.6846 6.72C46.3886 6.888 46.1526 7.14 45.9766 7.476C45.8006 7.804 45.7126 8.208 45.7126 8.688C45.7126 9.4 45.8926 9.952 46.2526 10.344C46.6206 10.728 47.0806 10.92 47.6326 10.92ZM60.4209 5.28C60.9409 5.28 61.4049 5.388 61.8129 5.604C62.2289 5.82 62.5529 6.14 62.7849 6.564C63.0249 6.988 63.1449 7.5 63.1449 8.1V12H61.7889V8.304C61.7889 7.712 61.6409 7.26 61.3449 6.948C61.0489 6.628 60.6449 6.468 60.1329 6.468C59.6209 6.468 59.2129 6.628 58.9089 6.948C58.6129 7.26 58.4649 7.712 58.4649 8.304V12H57.1089V8.304C57.1089 7.712 56.9609 7.26 56.6649 6.948C56.3689 6.628 55.9649 6.468 55.4529 6.468C54.9409 6.468 54.5329 6.628 54.2289 6.948C53.9329 7.26 53.7849 7.712 53.7849 8.304V12H52.4169V5.388H53.7849V6.144C54.0089 5.872 54.2929 5.66 54.6369 5.508C54.9809 5.356 55.3489 5.28 55.7409 5.28C56.2689 5.28 56.7409 5.392 57.1569 5.616C57.5729 5.84 57.8929 6.164 58.1169 6.588C58.3169 6.188 58.6289 5.872 59.0529 5.64C59.4769 5.4 59.9329 5.28 60.4209 5.28Z" fill="black"/>
</svg>
