<svg width="79" height="24" viewBox="0 0 79 24" fill="none" xmlns="http://www.w3.org/2000/svg">
<path d="M6.648 16.084C6.088 16.084 5.584 15.988 5.136 15.796C4.688 15.596 4.336 15.316 4.08 14.956C3.824 14.596 3.696 14.176 3.696 13.696H5.16C5.192 14.056 5.332 14.352 5.58 14.584C5.836 14.816 6.192 14.932 6.648 14.932C7.12 14.932 7.488 14.82 7.752 14.596C8.016 14.364 8.148 14.068 8.148 13.708C8.148 13.428 8.064 13.2 7.896 13.024C7.736 12.848 7.532 12.712 7.284 12.616C7.044 12.52 6.708 12.416 6.276 12.304C5.732 12.16 5.288 12.016 4.944 11.872C4.608 11.72 4.32 11.488 4.08 11.176C3.84 10.864 3.72 10.448 3.72 9.928C3.72 9.448 3.84 9.028 4.08 8.668C4.32 8.308 4.656 8.032 5.088 7.84C5.52 7.648 6.02 7.552 6.588 7.552C7.396 7.552 8.056 7.756 8.568 8.164C9.088 8.564 9.376 9.116 9.432 9.82H7.92C7.896 9.516 7.752 9.256 7.488 9.04C7.224 8.824 6.876 8.716 6.444 8.716C6.052 8.716 5.732 8.816 5.484 9.016C5.236 9.216 5.112 9.504 5.112 9.88C5.112 10.136 5.188 10.348 5.34 10.516C5.5 10.676 5.7 10.804 5.94 10.9C6.18 10.996 6.508 11.1 6.924 11.212C7.476 11.364 7.924 11.516 8.268 11.668C8.62 11.82 8.916 12.056 9.156 12.376C9.404 12.688 9.528 13.108 9.528 13.636C9.528 14.06 9.412 14.46 9.18 14.836C8.956 15.212 8.624 15.516 8.184 15.748C7.752 15.972 7.24 16.084 6.648 16.084ZM11.8382 8.512C11.5902 8.512 11.3822 8.428 11.2142 8.26C11.0462 8.092 10.9622 7.884 10.9622 7.636C10.9622 7.388 11.0462 7.18 11.2142 7.012C11.3822 6.844 11.5902 6.76 11.8382 6.76C12.0782 6.76 12.2822 6.844 12.4502 7.012C12.6182 7.18 12.7022 7.388 12.7022 7.636C12.7022 7.884 12.6182 8.092 12.4502 8.26C12.2822 8.428 12.0782 8.512 11.8382 8.512ZM12.5102 9.388V16H11.1422V9.388H12.5102ZM16.9703 9.28C17.4823 9.28 17.9343 9.384 18.3263 9.592C18.7263 9.792 19.0383 10.044 19.2623 10.348V9.388H20.6423V16.108C20.6423 16.716 20.5143 17.256 20.2583 17.728C20.0023 18.208 19.6303 18.584 19.1423 18.856C18.6623 19.128 18.0863 19.264 17.4143 19.264C16.5183 19.264 15.7743 19.052 15.1823 18.628C14.5903 18.212 14.2543 17.644 14.1743 16.924H15.5303C15.6343 17.268 15.8543 17.544 16.1903 17.752C16.5343 17.968 16.9423 18.076 17.4143 18.076C17.9663 18.076 18.4103 17.908 18.7463 17.572C19.0903 17.236 19.2623 16.748 19.2623 16.108V15.004C19.0303 15.316 18.7143 15.58 18.3143 15.796C17.9223 16.004 17.4743 16.108 16.9703 16.108C16.3943 16.108 15.8663 15.964 15.3863 15.676C14.9143 15.38 14.5383 14.972 14.2583 14.452C13.9863 13.924 13.8503 13.328 13.8503 12.664C13.8503 12 13.9863 11.412 14.2583 10.9C14.5383 10.388 14.9143 9.992 15.3863 9.712C15.8663 9.424 16.3943 9.28 16.9703 9.28ZM19.2623 12.688C19.2623 12.232 19.1663 11.836 18.9743 11.5C18.7903 11.164 18.5463 10.908 18.2423 10.732C17.9383 10.556 17.6103 10.468 17.2583 10.468C16.9063 10.468 16.5783 10.556 16.2743 10.732C15.9703 10.9 15.7223 11.152 15.5303 11.488C15.3463 11.816 15.2543 12.208 15.2543 12.664C15.2543 13.12 15.3463 13.52 15.5303 13.864C15.7223 14.208 15.9703 14.472 16.2743 14.656C16.5863 14.832 16.9143 14.92 17.2583 14.92C17.6103 14.92 17.9383 14.832 18.2423 14.656C18.5463 14.48 18.7903 14.224 18.9743 13.888C19.1663 13.544 19.2623 13.144 19.2623 12.688ZM25.7751 9.28C26.2951 9.28 26.7591 9.388 27.1671 9.604C27.5831 9.82 27.9071 10.14 28.1391 10.564C28.3711 10.988 28.4871 11.5 28.4871 12.1V16H27.1311V12.304C27.1311 11.712 26.9831 11.26 26.6871 10.948C26.3911 10.628 25.9871 10.468 25.4751 10.468C24.9631 10.468 24.5551 10.628 24.2511 10.948C23.9551 11.26 23.8071 11.712 23.8071 12.304V16H22.4391V9.388H23.8071V10.144C24.0311 9.872 24.3151 9.66 24.6591 9.508C25.0111 9.356 25.3831 9.28 25.7751 9.28ZM37.1532 16.084C36.3772 16.084 35.6612 15.904 35.0052 15.544C34.3572 15.176 33.8412 14.668 33.4572 14.02C33.0812 13.364 32.8932 12.628 32.8932 11.812C32.8932 10.996 33.0812 10.264 33.4572 9.616C33.8412 8.968 34.3572 8.464 35.0052 8.104C35.6612 7.736 36.3772 7.552 37.1532 7.552C37.9372 7.552 38.6532 7.736 39.3012 8.104C39.9572 8.464 40.4732 8.968 40.8492 9.616C41.2252 10.264 41.4132 10.996 41.4132 11.812C41.4132 12.628 41.2252 13.364 40.8492 14.02C40.4732 14.668 39.9572 15.176 39.3012 15.544C38.6532 15.904 37.9372 16.084 37.1532 16.084ZM37.1532 14.896C37.7052 14.896 38.1972 14.772 38.6292 14.524C39.0612 14.268 39.3972 13.908 39.6372 13.444C39.8852 12.972 40.0092 12.428 40.0092 11.812C40.0092 11.196 39.8852 10.656 39.6372 10.192C39.3972 9.728 39.0612 9.372 38.6292 9.124C38.1972 8.876 37.7052 8.752 37.1532 8.752C36.6012 8.752 36.1092 8.876 35.6772 9.124C35.2452 9.372 34.9052 9.728 34.6572 10.192C34.4172 10.656 34.2972 11.196 34.2972 11.812C34.2972 12.428 34.4172 12.972 34.6572 13.444C34.9052 13.908 35.2452 14.268 35.6772 14.524C36.1092 14.772 36.6012 14.896 37.1532 14.896ZM48.7474 9.388V16H47.3794V15.22C47.1634 15.492 46.8794 15.708 46.5274 15.868C46.1834 16.02 45.8154 16.096 45.4234 16.096C44.9034 16.096 44.4354 15.988 44.0194 15.772C43.6114 15.556 43.2874 15.236 43.0474 14.812C42.8154 14.388 42.6994 13.876 42.6994 13.276V9.388H44.0554V13.072C44.0554 13.664 44.2034 14.12 44.4994 14.44C44.7954 14.752 45.1994 14.908 45.7114 14.908C46.2234 14.908 46.6274 14.752 46.9234 14.44C47.2274 14.12 47.3794 13.664 47.3794 13.072V9.388H48.7474ZM52.1483 10.504V14.164C52.1483 14.412 52.2043 14.592 52.3163 14.704C52.4363 14.808 52.6363 14.86 52.9163 14.86H53.7563V16H52.6763C52.0603 16 51.5883 15.856 51.2603 15.568C50.9323 15.28 50.7683 14.812 50.7683 14.164V10.504H49.9883V9.388H50.7683V7.744H52.1483V9.388H53.7563V10.504H52.1483Z" fill="black"/>
<path d="M64 21H60C59.4696 21 58.9609 20.7893 58.5858 20.4142C58.2107 20.0391 58 19.5304 58 19V5C58 4.46957 58.2107 3.96086 58.5858 3.58579C58.9609 3.21071 59.4696 3 60 3H64" stroke="black" stroke-width="2" stroke-linecap="round" stroke-linejoin="round"/>
<path d="M71 17L76 12L71 7" stroke="black" stroke-width="2" stroke-linecap="round" stroke-linejoin="round"/>
<path d="M76 12H64" stroke="black" stroke-width="2" stroke-linecap="round" stroke-linejoin="round"/>
</svg>
